<svg width="193" height="106" viewBox="0 0 193 106" fill="none" xmlns="http://www.w3.org/2000/svg">
<path d="M87 12C87 15.866 83.866 19 80 19C76.134 19 73 15.866 73 12C73 8.13401 76.134 5 80 5C83.866 5 87 8.13401 87 12Z" fill="white"/>
<path d="M123 12C123 15.866 119.866 19 116 19C112.134 19 109 15.866 109 12C109 8.13401 112.134 5 116 5C119.866 5 123 8.13401 123 12Z" fill="white"/>
<path d="M105 43C105 46.866 101.866 50 98 50C94.134 50 91 46.866 91 43C91 39.134 94.134 36 98 36C101.866 36 105 39.134 105 43Z" fill="white"/>
</svg>
